<?xml version="1.0" standalone="no"?><!DOCTYPE svg PUBLIC "-//W3C//DTD SVG 1.1//EN" "http://www.w3.org/Graphics/SVG/1.1/DTD/svg11.dtd"><svg width="100%" height="100%" viewBox="0 0 18 22" version="1.1" xmlns="http://www.w3.org/2000/svg" xmlns:xlink="http://www.w3.org/1999/xlink" xml:space="preserve" style="fill-rule:evenodd;clip-rule:evenodd;stroke-linejoin:round;stroke-miterlimit:1.41421;"><g id="Layer1"><g><g opacity="0.599526"><path d="M0,21.9927l0,-16.0295l17.9927,0l0,16.0295l-17.9927,0ZM1.17054,7.14347l-2.44249e-15,13.604l15.5932,0l3.55271e-15,-13.7561l-3.55271e-15,0.152063l-15.6682,-2.66454e-15l0.075,0Z" style="fill:#000;"/><path d="M4.94275,6.31496l0.0442226,-0.0264185l0.160103,0l0,3.64233l-0.22613,0l-0.936389,3.55271e-15l0,-3.64233l0.0978979,0l0.281681,0.108021c0.014402,0.00624281 0.0290929,0.0118819 0.0440399,0.0168888l-0.0440399,-0.0168888c-0.135625,-0.0587581 -0.245527,-0.170757 -0.301362,-0.309233c-0.0226869,-0.0562654 -0.0334774,-0.113533 -0.0401185,-0.173565c-0.00240665,-0.0746684 -0.000282265,-0.149144 0.00223303,-0.22379c0.0350517,-0.744435 0.242217,-1.4704 0.597706,-2.1243c0.306097,-0.563044 0.716152,-1.06827 1.2017,-1.48384c0.368933,-0.315763 0.781681,-0.579698 1.22403,-0.778101c0.826526,-0.370719 1.75,-0.50213 2.64537,-0.367103c0.509732,0.0768709 1.00573,0.238387 1.46562,0.472529c0.466642,0.237577 0.895549,0.549026 1.26974,0.916729c0.455384,0.447487 0.83036,0.978601 1.09612,1.56112c0.284018,0.62255 0.4363,1.29735 0.44093,1.98204l-0.00144041,0.0447012c-0.0133624,0.120799 -0.0529489,0.232186 -0.131503,0.326146c-0.0144249,0.0172538 -0.0297796,0.0334763 -0.0459489,0.0486354l0.228227,0l0,3.64233l-1.16252,0l0,-3.64233l0.161311,0c-0.0900557,-0.0851978 -0.150988,-0.199606 -0.171186,-0.322664c-0.00757446,-0.0461474 -0.00728083,-0.0919244 -0.00789706,-0.138512c-0.000803749,-0.0607626 -0.00368075,-0.121382 -0.00734563,-0.182028c-0.0055927,-0.0758249 -0.0131626,-0.151245 -0.0227206,-0.226666c-0.0771721,-0.551563 -0.276106,-1.07867 -0.574473,-1.54734c-0.287095,-0.450967 -0.661855,-0.845484 -1.09736,-1.15301c-0.360287,-0.254417 -0.762645,-0.448856 -1.18726,-0.565808c-0.771827,-0.212586 -1.61189,-0.160782 -2.34971,0.153847c-0.348128,0.148453 -0.673719,0.343284 -0.96754,0.583233c-0.364134,0.29737 -0.677466,0.658022 -0.921415,1.06131c-0.254715,0.421083 -0.434027,0.890035 -0.511862,1.37749c-0.0191632,0.120013 -0.0321693,0.241031 -0.0386947,0.362413c-0.00413307,0.0768806 -0.00345937,0.153821 -0.00697729,0.230694l-0.00551729,0.0443779c-0.0120958,0.0591622 -0.0280708,0.115186 -0.0558002,0.169109c-0.0357699,0.0695587 -0.0857759,0.130869 -0.145724,0.179978l-0.143445,0.0856938c0.051904,-0.0212461 0.100256,-0.0503016 0.143445,-0.0856938Z" style="fill:#000;"/></g></g></g></svg>